<svg xmlns="http://www.w3.org/2000/svg" width="1082.849853515625" height="795.94677734375" viewBox="-596.9964599609375 -406.51910400390625 1082.849853515625 795.94677734375"><title>Neo4j Graph Visualization</title><desc>Created using Neo4j (http://www.neo4j.com/)</desc><g class="layer relationships"><g class="relationship" transform="translate(-481.71081311496215 -161.59252039375804) rotate(486.18717398237095)"><path class="b-outline" fill="#A5ABB6" stroke="none" d="M 25 0.5 L 39.82469650901194 0.5 L 39.82469650901194 -0.5 L 25 -0.5 Z M 99.31688400901194 0.5 L 114.14158051802389 0.5 L 114.14158051802389 3.5 L 121.14158051802389 0 L 114.14158051802389 -3.5 L 114.14158051802389 -0.5 L 99.31688400901194 -0.5 Z"/><text text-anchor="middle" pointer-events="none" font-size="8px" fill="#000000" x="69.57079025901194" y="3" transform="rotate(180 69.57079025901194 0)" font-family="Helvetica Neue, Helvetica, Arial, sans-serif">HAS_PATIENT</text></g><g class="relationship" transform="translate(-481.71081311496215 -161.59252039375804) rotate(413.5812945314025)"><path class="b-outline" fill="#A5ABB6" stroke="none" d="M 25 0.5 L 42.339755949096784 0.5 L 42.339755949096784 -0.5 L 25 -0.5 Z M 103.75772469909678 0.5 L 121.09748064819357 0.5 L 121.09748064819357 3.5 L 128.09748064819357 0 L 121.09748064819357 -3.5 L 121.09748064819357 -0.5 L 103.75772469909678 -0.5 Z"/><text text-anchor="middle" pointer-events="none" font-size="8px" fill="#000000" x="73.04874032409678" y="3" font-family="Helvetica Neue, Helvetica, Arial, sans-serif">HAS_DOCTOR</text></g><g class="relationship" transform="translate(-328.8868329623692 -171.4559296090755) rotate(290.7300893117682)"><path class="b-outline" fill="#A5ABB6" stroke="none" d="M 25 0.5 L 42.5114103376215 0.5 L 42.5114103376215 -0.5 L 25 -0.5 Z M 102.0035978376215 0.5 L 119.515008175243 0.5 L 119.515008175243 3.5 L 126.515008175243 0 L 119.515008175243 -3.5 L 119.515008175243 -0.5 L 102.0035978376215 -0.5 Z"/><text text-anchor="middle" pointer-events="none" font-size="8px" fill="#000000" x="72.2575040876215" y="3" font-family="Helvetica Neue, Helvetica, Arial, sans-serif">HAS_PATIENT</text></g><g class="relationship" transform="translate(-328.8868329623692 -171.4559296090755) rotate(474.95948058439524)"><path class="b-outline" fill="#A5ABB6" stroke="none" d="M 25 0.5 L 39.17509377211647 0.5 L 39.17509377211647 -0.5 L 25 -0.5 Z M 100.59306252211647 0.5 L 114.76815629423294 0.5 L 114.76815629423294 3.5 L 121.76815629423294 0 L 114.76815629423294 -3.5 L 114.76815629423294 -0.5 L 100.59306252211647 -0.5 Z"/><text text-anchor="middle" pointer-events="none" font-size="8px" fill="#000000" x="69.88407814711647" y="3" transform="rotate(180 69.88407814711647 0)" font-family="Helvetica Neue, Helvetica, Arial, sans-serif">HAS_DOCTOR</text></g><g class="relationship" transform="translate(-411.2475575659328 344.1070944383484) rotate(365.86023640174795)"><path class="b-outline" fill="#A5ABB6" stroke="none" d="M 25 0.5 L 46.67631678366969 0.5 L 46.67631678366969 -0.5 L 25 -0.5 Z M 106.16850428366969 0.5 L 127.84482106733938 0.5 L 127.84482106733938 3.5 L 134.84482106733938 0 L 127.84482106733938 -3.5 L 127.84482106733938 -0.5 L 106.16850428366969 -0.5 Z"/><text text-anchor="middle" pointer-events="none" font-size="8px" fill="#000000" x="76.42241053366969" y="3" font-family="Helvetica Neue, Helvetica, Arial, sans-serif">HAS_PATIENT</text></g><g class="relationship" transform="translate(-411.2475575659328 344.1070944383484) rotate(283.6767789724568)"><path class="b-outline" fill="#A5ABB6" stroke="none" d="M 25 0.5 L 32.45934473948847 0.5 L 32.45934473948847 -0.5 L 25 -0.5 Z M 93.87731348948847 0.5 L 101.33665822897694 0.5 L 101.33665822897694 3.5 L 108.33665822897694 0 L 101.33665822897694 -3.5 L 101.33665822897694 -0.5 L 93.87731348948847 -0.5 Z"/><text text-anchor="middle" pointer-events="none" font-size="8px" fill="#000000" x="63.16832911448847" y="3" font-family="Helvetica Neue, Helvetica, Arial, sans-serif">HAS_DOCTOR</text></g><g class="relationship" transform="translate(-4.555807552206598 -315.2704749919958) rotate(335.0984139389709)"><path class="b-outline" fill="#A5ABB6" stroke="none" d="M 25 0.5 L 40.67268215056558 0.5 L 40.67268215056558 -0.5 L 25 -0.5 Z M 100.16486965056558 0.5 L 115.83755180113116 0.5 L 115.83755180113116 3.5 L 122.83755180113116 0 L 115.83755180113116 -3.5 L 115.83755180113116 -0.5 L 100.16486965056558 -0.5 Z"/><text text-anchor="middle" pointer-events="none" font-size="8px" fill="#000000" x="70.41877590056558" y="3" font-family="Helvetica Neue, Helvetica, Arial, sans-serif">HAS_PATIENT</text></g><g class="relationship" transform="translate(-4.555807552206598 -315.2704749919958) rotate(499.2966673513573)"><path class="b-outline" fill="#A5ABB6" stroke="none" d="M 25 0.5 L 51.802572295988725 0.5 L 51.802572295988725 -0.5 L 25 -0.5 Z M 113.22054104598872 0.5 L 140.02311334197745 0.5 L 140.02311334197745 3.5 L 147.02311334197745 0 L 140.02311334197745 -3.5 L 140.02311334197745 -0.5 L 113.22054104598872 -0.5 Z"/><text text-anchor="middle" pointer-events="none" font-size="8px" fill="#000000" x="82.51155667098872" y="3" transform="rotate(180 82.51155667098872 0)" font-family="Helvetica Neue, Helvetica, Arial, sans-serif">HAS_DOCTOR</text></g><g class="relationship" transform="translate(413.1022132598728 76.27665987163186) rotate(287.5154879240967)"><path class="b-outline" fill="#A5ABB6" stroke="none" d="M 25 0.5 L 39.43907996438125 0.5 L 39.43907996438125 -0.5 L 25 -0.5 Z M 98.93126746438125 0.5 L 113.3703474287625 0.5 L 113.3703474287625 3.5 L 120.3703474287625 0 L 113.3703474287625 -3.5 L 113.3703474287625 -0.5 L 98.93126746438125 -0.5 Z"/><text text-anchor="middle" pointer-events="none" font-size="8px" fill="#000000" x="69.18517371438125" y="3" font-family="Helvetica Neue, Helvetica, Arial, sans-serif">HAS_PATIENT</text></g><g class="relationship" transform="translate(413.1022132598728 76.27665987163186) rotate(521.9684803100167)"><path class="b-outline" fill="#A5ABB6" stroke="none" d="M 25 0.5 L 43.76580784626391 0.5 L 43.76580784626391 -0.5 L 25 -0.5 Z M 105.18377659626391 0.5 L 123.94958444252782 0.5 L 123.94958444252782 3.5 L 130.94958444252782 0 L 123.94958444252782 -3.5 L 123.94958444252782 -0.5 L 105.18377659626391 -0.5 Z"/><text text-anchor="middle" pointer-events="none" font-size="8px" fill="#000000" x="74.47479222126391" y="3" transform="rotate(180 74.47479222126391 0)" font-family="Helvetica Neue, Helvetica, Arial, sans-serif">HAS_DOCTOR</text></g><g class="relationship" transform="translate(-390.81965121281314 -38.39497468402669) rotate(395.55862591122417)"><path class="b-outline" fill="#A5ABB6" stroke="none" d="M 25 0.5 L 32.88247039510855 0.5 L 32.88247039510855 -0.5 L 25 -0.5 Z M 86.45278289510856 0.5 L 94.3352532902171 0.5 L 94.3352532902171 3.5 L 101.3352532902171 0 L 94.3352532902171 -3.5 L 94.3352532902171 -0.5 L 86.45278289510856 -0.5 Z"/><text text-anchor="middle" pointer-events="none" font-size="8px" fill="#000000" x="59.66762664510855" y="3" font-family="Helvetica Neue, Helvetica, Arial, sans-serif">RESIDES_IN</text></g><g class="relationship" transform="translate(-134.96591138128178 -203.0868917761052) rotate(472.2502285719646)"><path class="b-outline" fill="#A5ABB6" stroke="none" d="M 25 0.5 L 34.94846062897982 0.5 L 34.94846062897982 -0.5 L 25 -0.5 Z M 88.51877312897982 0.5 L 98.46723375795963 0.5 L 98.46723375795963 3.5 L 105.46723375795963 0 L 98.46723375795963 -3.5 L 98.46723375795963 -0.5 L 88.51877312897982 -0.5 Z"/><text text-anchor="middle" pointer-events="none" font-size="8px" fill="#000000" x="61.73361687897982" y="3" transform="rotate(180 61.73361687897982 0)" font-family="Helvetica Neue, Helvetica, Arial, sans-serif">RESIDES_IN</text></g><g class="relationship" transform="translate(238.29769560957777 305.94572107539) rotate(201.17430402269036)"><path class="b-outline" fill="#A5ABB6" stroke="none" d="M 25 0.5 L 43.8911786683488 0.5 L 43.8911786683488 -0.5 L 25 -0.5 Z M 97.4614911683488 0.5 L 116.3526698366976 0.5 L 116.3526698366976 3.5 L 123.3526698366976 0 L 116.3526698366976 -3.5 L 116.3526698366976 -0.5 L 97.4614911683488 -0.5 Z"/><text text-anchor="middle" pointer-events="none" font-size="8px" fill="#000000" x="70.6763349183488" y="3" transform="rotate(180 70.6763349183488 0)" font-family="Helvetica Neue, Helvetica, Arial, sans-serif">RESIDES_IN</text></g><g class="relationship" transform="translate(-379.72085489197275 214.55119358401168) rotate(362.0256794662148)"><path class="b-outline" fill="#A5ABB6" stroke="none" d="M 25 0.5 L 37.71900564881659 0.5 L 37.71900564881659 -0.5 L 25 -0.5 Z M 91.28931814881659 0.5 L 104.00832379763318 0.5 L 104.00832379763318 3.5 L 111.00832379763318 0 L 104.00832379763318 -3.5 L 104.00832379763318 -0.5 L 91.28931814881659 -0.5 Z"/><text text-anchor="middle" pointer-events="none" font-size="8px" fill="#000000" x="64.50416189881659" y="3" font-family="Helvetica Neue, Helvetica, Arial, sans-serif">RESIDES_IN</text></g><g class="relationship" transform="translate(264.8118781904928 124.5493168609474) rotate(241.5648415836834)"><path class="b-outline" fill="#A5ABB6" stroke="none" d="M 25 0.5 L 39.41378583660594 0.5 L 39.41378583660594 -0.5 L 25 -0.5 Z M 92.98409833660594 0.5 L 107.39788417321188 0.5 L 107.39788417321188 3.5 L 114.39788417321188 0 L 107.39788417321188 -3.5 L 107.39788417321188 -0.5 L 92.98409833660594 -0.5 Z"/><text text-anchor="middle" pointer-events="none" font-size="8px" fill="#000000" x="66.19894208660594" y="3" transform="rotate(180 66.19894208660594 0)" font-family="Helvetica Neue, Helvetica, Arial, sans-serif">RESIDES_IN</text></g><g class="relationship" transform="translate(-288.04328121785215 35.0734810950503) rotate(356.65258804488246)"><path class="b-outline" fill="#A5ABB6" stroke="none" d="M 25 0.5 L 71.23841508114528 0.5 L 71.23841508114528 -0.5 L 25 -0.5 Z M 126.87904008114528 0.5 L 173.11745516229055 0.5 L 173.11745516229055 3.5 L 180.11745516229055 0 L 173.11745516229055 -3.5 L 173.11745516229055 -0.5 L 126.87904008114528 -0.5 Z"/><text text-anchor="middle" pointer-events="none" font-size="8px" fill="#000000" x="99.05872758114528" y="3" font-family="Helvetica Neue, Helvetica, Arial, sans-serif">LOCATED_IN</text></g><g class="relationship" transform="translate(-184.36763077594836 -82.33437956495197) rotate(406.2036457092879)"><path class="b-outline" fill="#A5ABB6" stroke="none" d="M 25 0.5 L 41.71266236259892 0.5 L 41.71266236259892 -0.5 L 25 -0.5 Z M 97.35328736259892 0.5 L 114.06594972519784 0.5 L 114.06594972519784 3.5 L 121.06594972519784 0 L 114.06594972519784 -3.5 L 114.06594972519784 -0.5 L 97.35328736259892 -0.5 Z"/><text text-anchor="middle" pointer-events="none" font-size="8px" fill="#000000" x="69.53297486259892" y="3" font-family="Helvetica Neue, Helvetica, Arial, sans-serif">LOCATED_IN</text></g><g class="relationship" transform="translate(99.96092444738639 252.3597864274276) rotate(209.5398097440958)"><path class="b-outline" fill="#A5ABB6" stroke="none" d="M 25 0.5 L 72.59339776258074 0.5 L 72.59339776258074 -0.5 L 25 -0.5 Z M 128.23402276258074 0.5 L 175.82742052516147 0.5 L 175.82742052516147 3.5 L 182.82742052516147 0 L 175.82742052516147 -3.5 L 175.82742052516147 -0.5 L 128.23402276258074 -0.5 Z"/><text text-anchor="middle" pointer-events="none" font-size="8px" fill="#000000" x="100.41371026258074" y="3" transform="rotate(180 100.41371026258074 0)" font-family="Helvetica Neue, Helvetica, Arial, sans-serif">LOCATED_IN</text></g><g class="relationship" transform="translate(-243.7975247367449 219.35873575800838) rotate(336.9114723000257)"><path class="b-outline" fill="#A5ABB6" stroke="none" d="M 25 0.5 L 57.24682172007239 0.5 L 57.24682172007239 -0.5 L 25 -0.5 Z M 112.88744672007239 0.5 L 145.13426844014478 0.5 L 145.13426844014478 3.5 L 152.13426844014478 0 L 145.13426844014478 -3.5 L 145.13426844014478 -0.5 L 112.88744672007239 -0.5 Z"/><text text-anchor="middle" pointer-events="none" font-size="8px" fill="#000000" x="85.06713422007239" y="3" font-family="Helvetica Neue, Helvetica, Arial, sans-serif">LOCATED_IN</text></g><g class="relationship" transform="translate(198.43563824035093 1.9688743668472917) rotate(517.2742524859597)"><path class="b-outline" fill="#A5ABB6" stroke="none" d="M 25 0.5 L 51.65984517115652 0.5 L 51.65984517115652 -0.5 L 25 -0.5 Z M 107.30047017115652 0.5 L 133.96031534231304 0.5 L 133.96031534231304 3.5 L 140.96031534231304 0 L 133.96031534231304 -3.5 L 133.96031534231304 -0.5 L 107.30047017115652 -0.5 Z"/><text text-anchor="middle" pointer-events="none" font-size="8px" fill="#000000" x="79.48015767115652" y="3" transform="rotate(180 79.48015767115652 0)" font-family="Helvetica Neue, Helvetica, Arial, sans-serif">LOCATED_IN</text></g><g class="relationship" transform="translate(117.46927625074942 -65.95375021775156) rotate(478.6404302063916)"><path class="b-outline" fill="#A5ABB6" stroke="none" d="M 25 0.5 L 43.90173783602543 0.5 L 43.90173783602543 -0.5 L 25 -0.5 Z M 99.54236283602543 0.5 L 118.44410067205087 0.5 L 118.44410067205087 3.5 L 125.44410067205087 0 L 118.44410067205087 -3.5 L 118.44410067205087 -0.5 L 99.54236283602543 -0.5 Z"/><text text-anchor="middle" pointer-events="none" font-size="8px" fill="#000000" x="71.72205033602543" y="3" transform="rotate(180 71.72205033602543 0)" font-family="Helvetica Neue, Helvetica, Arial, sans-serif">LOCATED_IN</text></g></g><g class="layer nodes"><g class="node" aria-label="graph-node0" transform="translate(-83.27578907133608,23.09664627608612)" style="touch-action: none; -webkit-tap-highlight-color: rgba(0, 0, 0, 0);"><circle class="b-outline" cx="0" cy="0" r="25" fill="#DA7194" stroke="#cc3c6c" stroke-width="2px"/><text class="caption" text-anchor="middle" pointer-events="none" x="0" y="0" font-size="10px" fill="#FFFFFF" font-family="Helvetica Neue, Helvetica, Arial, sans-serif"> Zlatá</text><text class="caption" text-anchor="middle" pointer-events="none" x="0" y="10" font-size="10px" fill="#FFFFFF" font-family="Helvetica Neue, Helvetica, Arial, sans-serif"> Nemo…</text></g><g class="node" aria-label="graph-node1" transform="translate(-80.85170476669111,149.8950127789447)" style="touch-action: none; -webkit-tap-highlight-color: rgba(0, 0, 0, 0);"><circle class="b-outline" cx="0" cy="0" r="25" fill="#DA7194" stroke="#cc3c6c" stroke-width="2px"/><text class="caption" text-anchor="middle" pointer-events="none" x="0" y="0" font-size="10px" fill="#FFFFFF" font-family="Helvetica Neue, Helvetica, Arial, sans-serif"> Červený</text><text class="caption" text-anchor="middle" pointer-events="none" x="0" y="10" font-size="10px" fill="#FFFFFF" font-family="Helvetica Neue, Helvetica, Arial, sans-serif"> Vrchol…</text></g><g class="node" aria-label="graph-node2" transform="translate(45.359721968056704,66.08275840078764)" style="touch-action: none; -webkit-tap-highlight-color: rgba(0, 0, 0, 0);"><circle class="b-outline" cx="0" cy="0" r="25" fill="#DA7194" stroke="#cc3c6c" stroke-width="2px"/><text class="caption" text-anchor="middle" pointer-events="none" x="0" y="0" font-size="10px" fill="#FFFFFF" font-family="Helvetica Neue, Helvetica, Arial, sans-serif"> Nová</text><text class="caption" text-anchor="middle" pointer-events="none" x="0" y="10" font-size="10px" fill="#FFFFFF" font-family="Helvetica Neue, Helvetica, Arial, sans-serif"> Šachta</text></g><g class="node" aria-label="graph-node3" transform="translate(-288.04328121785215,35.0734810950503)" style="touch-action: none; -webkit-tap-highlight-color: rgba(0, 0, 0, 0);"><circle class="b-outline" cx="0" cy="0" r="25" fill="#569480" stroke="#447666" stroke-width="2px"/><text class="caption" text-anchor="middle" pointer-events="none" x="0" y="5" font-size="10px" fill="#FFFFFF" font-family="Helvetica Neue, Helvetica, Arial, sans-serif"> 110</text></g><g class="node" aria-label="graph-node4" transform="translate(99.96092444738639,252.3597864274276)" style="touch-action: none; -webkit-tap-highlight-color: rgba(0, 0, 0, 0);"><circle class="b-outline" cx="0" cy="0" r="25" fill="#569480" stroke="#447666" stroke-width="2px"/><text class="caption" text-anchor="middle" pointer-events="none" x="0" y="5" font-size="10px" fill="#FFFFFF" font-family="Helvetica Neue, Helvetica, Arial, sans-serif"> 120</text></g><g class="node selected" aria-label="graph-node5" transform="translate(-184.36763077594836,-82.33437956495197)" style="touch-action: none; -webkit-tap-highlight-color: rgba(0, 0, 0, 0);"><circle class="b-outline" cx="0" cy="0" r="25" fill="#569480" stroke="#447666" stroke-width="2px"/><text class="caption" text-anchor="middle" pointer-events="none" x="0" y="5" font-size="10px" fill="#FFFFFF" font-family="Helvetica Neue, Helvetica, Arial, sans-serif"> 210</text></g><g class="node" aria-label="graph-node6" transform="translate(-243.7975247367449,219.35873575800838)" style="touch-action: none; -webkit-tap-highlight-color: rgba(0, 0, 0, 0);"><circle class="b-outline" cx="0" cy="0" r="25" fill="#569480" stroke="#447666" stroke-width="2px"/><text class="caption" text-anchor="middle" pointer-events="none" x="0" y="5" font-size="10px" fill="#FFFFFF" font-family="Helvetica Neue, Helvetica, Arial, sans-serif"> 221</text></g><g class="node" aria-label="graph-node7" transform="translate(198.43563824035093,1.9688743668472917)" style="touch-action: none; -webkit-tap-highlight-color: rgba(0, 0, 0, 0);"><circle class="b-outline" cx="0" cy="0" r="25" fill="#569480" stroke="#447666" stroke-width="2px"/><text class="caption" text-anchor="middle" pointer-events="none" x="0" y="5" font-size="10px" fill="#FFFFFF" font-family="Helvetica Neue, Helvetica, Arial, sans-serif"> 310</text></g><g class="node" aria-label="graph-node8" transform="translate(117.46927625074942,-65.95375021775156)" style="touch-action: none; -webkit-tap-highlight-color: rgba(0, 0, 0, 0);"><circle class="b-outline" cx="0" cy="0" r="25" fill="#569480" stroke="#447666" stroke-width="2px"/><text class="caption" text-anchor="middle" pointer-events="none" x="0" y="5" font-size="10px" fill="#FFFFFF" font-family="Helvetica Neue, Helvetica, Arial, sans-serif"> 321</text></g><g class="node" aria-label="graph-node9" transform="translate(-390.81965121281314,-38.39497468402669)" style="touch-action: none; -webkit-tap-highlight-color: rgba(0, 0, 0, 0);"><circle class="b-outline" cx="0" cy="0" r="25" fill="#FFC454" stroke="#d7a013" stroke-width="2px"/><text class="caption" text-anchor="middle" pointer-events="none" x="0" y="5" font-size="10px" fill="#2A2C34" font-family="Helvetica Neue, Helvetica, Arial, sans-serif"> Toboggan</text></g><g class="node" aria-label="graph-node10" transform="translate(-134.96591138128178,-203.0868917761052)" style="touch-action: none; -webkit-tap-highlight-color: rgba(0, 0, 0, 0);"><circle class="b-outline" cx="0" cy="0" r="25" fill="#FFC454" stroke="#d7a013" stroke-width="2px"/><text class="caption" text-anchor="middle" pointer-events="none" x="0" y="5" font-size="10px" fill="#2A2C34" font-family="Helvetica Neue, Helvetica, Arial, sans-serif"> O'Lagalos</text></g><g class="node" aria-label="graph-node11" transform="translate(238.29769560957777,305.94572107539)" style="touch-action: none; -webkit-tap-highlight-color: rgba(0, 0, 0, 0);"><circle class="b-outline" cx="0" cy="0" r="25" fill="#FFC454" stroke="#d7a013" stroke-width="2px"/><text class="caption" text-anchor="middle" pointer-events="none" x="0" y="5" font-size="10px" fill="#2A2C34" font-family="Helvetica Neue, Helvetica, Arial, sans-serif"> Minderbi…</text></g><g class="node" aria-label="graph-node12" transform="translate(-379.72085489197275,214.55119358401168)" style="touch-action: none; -webkit-tap-highlight-color: rgba(0, 0, 0, 0);"><circle class="b-outline" cx="0" cy="0" r="25" fill="#FFC454" stroke="#d7a013" stroke-width="2px"/><text class="caption" text-anchor="middle" pointer-events="none" x="0" y="5" font-size="10px" fill="#2A2C34" font-family="Helvetica Neue, Helvetica, Arial, sans-serif"> Brock</text></g><g class="node" aria-label="graph-node13" transform="translate(264.8118781904928,124.5493168609474)" style="touch-action: none; -webkit-tap-highlight-color: rgba(0, 0, 0, 0);"><circle class="b-outline" cx="0" cy="0" r="25" fill="#FFC454" stroke="#d7a013" stroke-width="2px"/><text class="caption" text-anchor="middle" pointer-events="none" x="0" y="5" font-size="10px" fill="#2A2C34" font-family="Helvetica Neue, Helvetica, Arial, sans-serif"> Bridge</text></g><g class="node" aria-label="graph-node14" transform="translate(-567.9964572133981,-43.64274642693731)" style="touch-action: none; -webkit-tap-highlight-color: rgba(0, 0, 0, 0);"><circle class="b-outline" cx="0" cy="0" r="25" fill="#C990C0" stroke="#b261a5" stroke-width="2px"/><text class="caption" text-anchor="middle" pointer-events="none" x="0" y="5" font-size="10px" fill="#FFFFFF" font-family="Helvetica Neue, Helvetica, Arial, sans-serif"> Shivers</text></g><g class="node" aria-label="graph-node15" transform="translate(-275.25566392423315,-313.1615943157019)" style="touch-action: none; -webkit-tap-highlight-color: rgba(0, 0, 0, 0);"><circle class="b-outline" cx="0" cy="0" r="25" fill="#C990C0" stroke="#b261a5" stroke-width="2px"/><text class="caption" text-anchor="middle" pointer-events="none" x="0" y="5" font-size="10px" fill="#FFFFFF" font-family="Helvetica Neue, Helvetica, Arial, sans-serif"> Cosca</text></g><g class="node" aria-label="graph-node16" transform="translate(-252.23809893282777,360.42759955481455)" style="touch-action: none; -webkit-tap-highlight-color: rgba(0, 0, 0, 0);"><circle class="b-outline" cx="0" cy="0" r="25" fill="#C990C0" stroke="#b261a5" stroke-width="2px"/><text class="caption" text-anchor="middle" pointer-events="none" x="0" y="5" font-size="10px" fill="#FFFFFF" font-family="Helvetica Neue, Helvetica, Arial, sans-serif"> Brock</text></g><g class="node" aria-label="graph-node17" transform="translate(129.5376357825104,-377.51909085766124)" style="touch-action: none; -webkit-tap-highlight-color: rgba(0, 0, 0, 0);"><circle class="b-outline" cx="0" cy="0" r="25" fill="#C990C0" stroke="#b261a5" stroke-width="2px"/><text class="caption" text-anchor="middle" pointer-events="none" x="0" y="5" font-size="10px" fill="#FFFFFF" font-family="Helvetica Neue, Helvetica, Arial, sans-serif"> Paran</text></g><g class="node" aria-label="graph-node18" transform="translate(456.8533953042035,-62.35368305978755)" style="touch-action: none; -webkit-tap-highlight-color: rgba(0, 0, 0, 0);"><circle class="b-outline" cx="0" cy="0" r="25" fill="#C990C0" stroke="#b261a5" stroke-width="2px"/><text class="caption" text-anchor="middle" pointer-events="none" x="0" y="5" font-size="10px" fill="#FFFFFF" font-family="Helvetica Neue, Helvetica, Arial, sans-serif"> Fener</text></g><g class="node" aria-label="graph-node19" transform="translate(-481.71081311496215,-161.59252039375804)" style="touch-action: none; -webkit-tap-highlight-color: rgba(0, 0, 0, 0);"><circle class="b-outline" cx="0" cy="0" r="25" fill="#A5ABB6" stroke="#9AA1AC" stroke-width="2px"/><text class="caption" text-anchor="middle" pointer-events="none" x="0" y="5" font-size="10px" fill="#FFFFFF" font-family="Helvetica Neue, Helvetica, Arial, sans-serif"> Eye injury</text></g><g class="node" aria-label="graph-node20" transform="translate(-328.8868329623692,-171.4559296090755)" style="touch-action: none; -webkit-tap-highlight-color: rgba(0, 0, 0, 0);"><circle class="b-outline" cx="0" cy="0" r="25" fill="#A5ABB6" stroke="#9AA1AC" stroke-width="2px"/><text class="caption" text-anchor="middle" pointer-events="none" x="0" y="-5" font-size="10px" fill="#FFFFFF" font-family="Helvetica Neue, Helvetica, Arial, sans-serif"> Regular</text><text class="caption" text-anchor="middle" pointer-events="none" x="0" y="5" font-size="10px" fill="#FFFFFF" font-family="Helvetica Neue, Helvetica, Arial, sans-serif"> checkup</text><text class="caption" text-anchor="middle" pointer-events="none" x="0" y="15" font-size="10px" fill="#FFFFFF" font-family="Helvetica Neue, Helvetica, Arial, sans-serif"> reg</text></g><g class="node" aria-label="graph-node21" transform="translate(-411.2475575659328,344.1070944383484)" style="touch-action: none; -webkit-tap-highlight-color: rgba(0, 0, 0, 0);"><circle class="b-outline" cx="0" cy="0" r="25" fill="#A5ABB6" stroke="#9AA1AC" stroke-width="2px"/><text class="caption" text-anchor="middle" pointer-events="none" x="0" y="5" font-size="10px" fill="#FFFFFF" font-family="Helvetica Neue, Helvetica, Arial, sans-serif"> Injured leg</text></g><g class="node" aria-label="graph-node22" transform="translate(-4.555807552206598,-315.2704749919958)" style="touch-action: none; -webkit-tap-highlight-color: rgba(0, 0, 0, 0);"><circle class="b-outline" cx="0" cy="0" r="25" fill="#A5ABB6" stroke="#9AA1AC" stroke-width="2px"/><text class="caption" text-anchor="middle" pointer-events="none" x="0" y="0" font-size="10px" fill="#FFFFFF" font-family="Helvetica Neue, Helvetica, Arial, sans-serif"> Chronic</text><text class="caption" text-anchor="middle" pointer-events="none" x="0" y="10" font-size="10px" fill="#FFFFFF" font-family="Helvetica Neue, Helvetica, Arial, sans-serif"> dehyd…</text></g><g class="node" aria-label="graph-node23" transform="translate(413.1022132598728,76.27665987163186)" style="touch-action: none; -webkit-tap-highlight-color: rgba(0, 0, 0, 0);"><circle class="b-outline" cx="0" cy="0" r="25" fill="#A5ABB6" stroke="#9AA1AC" stroke-width="2px"/><text class="caption" text-anchor="middle" pointer-events="none" x="0" y="0" font-size="10px" fill="#FFFFFF" font-family="Helvetica Neue, Helvetica, Arial, sans-serif"> Severed</text><text class="caption" text-anchor="middle" pointer-events="none" x="0" y="10" font-size="10px" fill="#FFFFFF" font-family="Helvetica Neue, Helvetica, Arial, sans-serif"> hand</text></g></g></svg>